{
    "accessors" : [
        {
            "bufferView" : 0,
            "componentType" : 5123,
            "count" : 25842,
            "max" : [
                11876
            ],
            "min" : [
                0
            ],
            "type" : "SCALAR"
        },
        {
            "bufferView" : 1,
            "componentType" : 5126,
            "count" : 11877,
            "max" : [
                63.0,
                63.0,
                -0.0
            ],
            "min" : [
                -63.0,
                -63.0,
                -126.0
            ],
            "type" : "VEC3"
        },
        {
            "bufferView" : 2,
            "componentType" : 5126,
            "count" : 11877,
            "max" : [
                1.0,
                1.0,
                1.0
            ],
            "min" : [
                -1.0,
                -1.0,
                -1.0
            ],
            "type" : "VEC3"
        },
        {
            "bufferView" : 3,
            "componentType" : 5126,
            "count" : 11877,
            "max" : [
                1.0,
                0.0,
                -0.0,
                1.0
            ],
            "min" : [
                1.0,
                0.0,
                -0.0,
                -1.0
            ],
            "type" : "VEC4"
        },
        {
            "bufferView" : 4,
            "componentType" : 5126,
            "count" : 11877,
            "max" : [
                0.9941409826278687,
                0.5
            ],
            "min" : [
                0.5332030057907104,
                0.5
            ],
            "type" : "VEC2"
        },
        {
            "bufferView" : 5,
            "componentType" : 5126,
            "count" : 11877,
            "max" : [
                1.0,
                1.0,
                1.0,
                1.0
            ],
            "min" : [
                1.0,
                1.0,
                1.0,
                1.0
            ],
            "type" : "VEC4"
        }
    ],
    "asset" : {
        "generator" : "Khronos Blender glTF 2.0 exporter",
        "version" : "2.0"
    },
    "bufferViews" : [
        {
            "buffer" : 0,
            "byteLength" : 51684,
            "byteOffset" : 0,
            "target" : 34963
        },
        {
            "buffer" : 0,
            "byteLength" : 142524,
            "byteOffset" : 51684,
            "target" : 34962
        },
        {
            "buffer" : 0,
            "byteLength" : 142524,
            "byteOffset" : 194208,
            "target" : 34962
        },
        {
            "buffer" : 0,
            "byteLength" : 190032,
            "byteOffset" : 336732,
            "target" : 34962
        },
        {
            "buffer" : 0,
            "byteLength" : 95016,
            "byteOffset" : 526764,
            "target" : 34962
        },
        {
            "buffer" : 0,
            "byteLength" : 190032,
            "byteOffset" : 621780,
            "target" : 34962
        }
    ],
    "buffers" : [
        {
            "byteLength" : 811812,
            "uri" : "data:application/octet-stream;base64,"
        }
    ],
    "meshes" : [
        {
            "name" : "Kitchen",
            "primitives" : [
                {
                    "attributes" : {
                        "COLOR_0" : 5,
                        "NORMAL" : 2,
                        "POSITION" : 1,
                        "TANGENT" : 3,
                        "TEXCOORD_0" : 4
                    },
                    "indices" : 0
                }
            ]
        }
    ],
    "nodes" : [
        {
            "mesh" : 0,
            "name" : "Kitchen",
            "rotation" : [
                0.7071068286895752,
                0.0,
                -0.0,
                0.7071067094802856
            ],
            "translation" : [
                63.72681427001953,
                -23.173126220703125,
                -46.80878448486328
            ]
        }
    ],
    "scene" : 0,
    "scenes" : [
        {
            "name" : "Scene",
            "nodes" : [
                0
            ]
        }
    ]
}
